<svg width="139" height="139" viewBox="0 0 139 139" fill="none" xmlns="http://www.w3.org/2000/svg">
<path d="M83.4057 48.6162C83.4057 49.8954 84.4415 50.9337 85.7232 50.9337H108.899C110.181 50.9337 111.217 49.8954 111.217 48.6162C111.217 47.337 110.181 46.2987 108.899 46.2987H85.7232C84.4415 46.2984 83.4057 47.3367 83.4057 48.6162Z" fill="#FE0101" fill-opacity="0.3"/>
<path d="M97.3112 62.5218C97.3112 63.801 98.3471 64.8393 99.6288 64.8393H113.534C114.816 64.8393 115.852 63.801 115.852 62.5218C115.852 61.2426 114.816 60.2043 113.534 60.2043H99.6288C98.3471 60.204 97.3112 61.2423 97.3112 62.5218Z" fill="#FE0101" fill-opacity="0.3"/>
<path d="M94.9935 37.0282C96.2751 37.0282 97.311 35.9899 97.311 34.7107C97.311 33.4315 96.2751 32.3932 94.9935 32.3932H90.3582C89.0765 32.3932 88.0407 33.4315 88.0407 34.7107C88.0407 35.9899 89.0765 37.0282 90.3582 37.0282H94.9935Z" fill="#FE0101" fill-opacity="0.3"/>
<path d="M67.1824 60.204C65.9007 60.204 64.8649 61.2423 64.8649 62.5215C64.8649 63.8008 65.9007 64.8391 67.1824 64.8391H90.3582C91.6399 64.8391 92.6757 63.8008 92.6757 62.5215C92.6757 61.2423 91.6399 60.204 90.3582 60.204H67.1824Z" fill="#FE0101" fill-opacity="0.3"/>
<path d="M78.7704 125.097H34.7362C30.9029 125.097 27.7834 121.977 27.7834 118.144V11.5345C27.7834 10.2553 26.7476 9.21704 25.4659 9.21704C19.0764 9.21704 13.8779 14.4153 13.8779 20.8051C13.8779 22.0843 14.9137 23.1226 16.1954 23.1226C17.477 23.1226 18.5129 22.0843 18.5129 20.8051C18.5129 17.7828 20.4504 15.2057 23.1481 14.2486V118.144C23.1481 124.534 28.3464 129.732 34.7362 129.732H78.7704C80.052 129.732 81.0879 128.694 81.0879 127.415C81.0879 126.135 80.052 125.097 78.7704 125.097Z" fill="black"/>
<path d="M44.0065 50.9337H76.4529C77.7346 50.9337 78.7704 49.8954 78.7704 48.6162C78.7704 47.337 77.7346 46.2987 76.4529 46.2987H44.0065C42.7249 46.2987 41.689 47.337 41.689 48.6162C41.689 49.8954 42.7249 50.9337 44.0065 50.9337Z" fill="#FE0101" fill-opacity="0.3"/>
<path d="M44.0065 37.0282H53.2768C54.5584 37.0282 55.5943 35.9899 55.5943 34.7107C55.5943 33.4315 54.5584 32.3932 53.2768 32.3932H44.0065C42.7249 32.3932 41.689 33.4315 41.689 34.7107C41.689 35.9899 42.7249 37.0282 44.0065 37.0282Z" fill="#FE0101" fill-opacity="0.3"/>
<path d="M81.0879 32.3929H62.5471C61.2654 32.3929 60.2296 33.4312 60.2296 34.7104C60.2296 35.9896 61.2654 37.0279 62.5471 37.0279H81.0879C82.3696 37.0279 83.4054 35.9896 83.4054 34.7104C83.4057 33.4312 82.3696 32.3929 81.0879 32.3929Z" fill="#FE0101" fill-opacity="0.3"/>
<path d="M113.534 0H25.4657C13.9911 0 4.6513 9.31428 4.6073 20.7771V20.8048V20.8304V20.8584V20.8861C4.63745 28.2769 8.62607 35.1623 15.034 38.8707C16.1419 39.5103 17.5579 39.1325 18.1997 38.0271C18.8439 36.9193 18.4615 35.501 17.3562 34.8611C12.3597 31.9665 9.25182 26.5944 9.24258 20.8306C9.25888 11.8985 16.5292 4.63528 25.4657 4.63528H113.534C122.478 4.63528 129.757 11.9126 129.757 20.8584V118.197C129.757 119.372 129.428 120.552 128.81 121.604C128.163 122.707 128.529 124.128 129.632 124.777C130.003 124.995 130.406 125.097 130.805 125.097C131.6 125.097 132.374 124.689 132.805 123.954C133.843 122.191 134.392 120.2 134.392 118.197V20.8584C134.393 9.35611 125.037 0 113.534 0Z" fill="black"/>
<path d="M120.487 106.556C120.487 98.887 114.251 92.6505 106.582 92.6505C98.9126 92.6505 92.676 98.887 92.676 106.556C92.676 114.225 98.9126 120.462 106.582 120.462C114.251 120.462 120.487 114.225 120.487 106.556ZM106.582 115.826C101.469 115.826 97.3112 111.668 97.3112 106.556C97.3112 101.444 101.469 97.2857 106.582 97.2857C111.694 97.2857 115.852 101.444 115.852 106.556C115.852 111.668 111.694 115.826 106.582 115.826Z" fill="black"/>
<path d="M102.398 122.782C101.293 122.142 99.8743 122.522 99.2322 123.63L94.2425 132.277L93.45 131.081C93.0491 130.471 92.384 130.087 91.6562 130.045L90.2238 129.959L95.2971 121.176C95.9367 120.068 95.5568 118.65 94.4489 118.01C93.3411 117.368 91.9229 117.748 91.2808 118.858L84.3351 130.889C83.9342 131.584 83.9225 132.439 84.3025 133.146C84.6825 133.853 85.4011 134.314 86.2053 134.36L90.2216 134.601L92.4394 137.959C92.8683 138.611 93.5959 139 94.3723 139H94.4443C95.2439 138.974 95.9786 138.536 96.3819 137.841L103.249 125.947C103.888 124.84 103.508 123.421 102.398 122.782Z" fill="black"/>
<path d="M121.943 118.967C121.301 117.857 119.88 117.477 118.777 118.119C117.667 118.758 117.286 120.177 117.926 121.284L122.939 129.959L121.507 130.045C120.779 130.089 120.114 130.474 119.711 131.081L118.923 132.276L113.959 123.673C113.314 122.566 111.896 122.186 110.79 122.825C109.683 123.465 109.303 124.883 109.942 125.991L116.784 137.841C117.187 138.536 117.922 138.974 118.721 139H118.793C119.567 139 120.297 138.611 120.728 137.96L122.944 134.604L126.958 134.36C127.762 134.314 128.481 133.853 128.861 133.146C129.241 132.439 129.227 131.584 128.829 130.889L121.943 118.967Z" fill="black"/>
<path d="M44.0065 64.8393H57.9121C59.1937 64.8393 60.2296 63.801 60.2296 62.5218C60.2296 61.2426 59.1937 60.2043 57.9121 60.2043H44.0065C42.7249 60.2043 41.689 61.2426 41.689 62.5218C41.689 63.801 42.7249 64.8393 44.0065 64.8393Z" fill="#FE0101" fill-opacity="0.3"/>
<path d="M44.0065 78.7449H71.8176C73.0993 78.7449 74.1351 77.7066 74.1351 76.4274C74.1351 75.1482 73.0993 74.1099 71.8176 74.1099H44.0065C42.7249 74.1099 41.689 75.1482 41.689 76.4274C41.689 77.7066 42.7249 78.7449 44.0065 78.7449Z" fill="#FE0101" fill-opacity="0.3"/>
<path d="M44.252 107.592C44.8221 108.737 46.2151 109.2 47.3599 108.63C48.5046 108.058 48.9707 106.665 48.3957 105.52C46.1013 100.931 45.5869 96.8151 47.0144 94.5043C47.7746 93.2738 49.1002 92.6502 50.959 92.6502C52.0644 92.6502 52.4769 93.0301 52.7366 93.4011C54.4631 95.8903 52.8224 103.471 51.1051 108.06C50.7227 109.082 51.1051 110.231 52.0228 110.822C52.9359 111.409 54.1434 111.281 54.9153 110.512C55.905 109.525 56.9781 108.54 57.9121 107.74V108.874C57.9121 109.81 58.4753 110.656 59.342 111.013C60.2087 111.374 61.203 111.175 61.8681 110.512C62.9273 109.455 64.1554 108.419 65.1891 107.673C65.1614 107.731 65.1335 107.787 65.1058 107.84C64.7511 108.558 64.7904 109.411 65.2125 110.092C65.6367 110.774 66.3806 111.191 67.1824 111.191H76.4526C77.7343 111.191 78.7701 110.153 78.7701 108.874C78.7701 107.594 77.7343 106.556 76.4526 106.556H70.42C70.6077 105.453 70.5615 104.331 70.0028 103.427C69.4119 102.47 68.3828 101.921 67.1824 101.921C65.75 101.921 64.0653 102.792 62.5264 103.872C62.4083 102.862 61.8102 102.03 60.9018 101.654C60.2831 101.399 59.4857 101.066 57.5506 102.227C58.3129 98.2336 58.5356 93.6309 56.547 90.7618C55.6779 89.5078 54.0047 88.0154 50.9593 88.0154C47.4875 88.0154 44.6855 89.4546 43.0703 92.069C40.7596 95.8093 41.1882 101.467 44.252 107.592Z" fill="black"/>
<path d="M106.582 76.4274C106.582 75.1482 105.546 74.1099 104.264 74.1099H81.0882C79.8065 74.1099 78.7707 75.1482 78.7707 76.4274C78.7707 77.7066 79.8065 78.7449 81.0882 78.7449H104.264C105.546 78.7449 106.582 77.7066 106.582 76.4274Z" fill="#FE0101" fill-opacity="0.3"/>
</svg>
