<svg width="139" height="139" viewBox="0 0 139 139" fill="none" xmlns="http://www.w3.org/2000/svg">
<g clip-path="url(#clip0)">
<path d="M79.5214 71.0104L75.3573 76.055C91.8986 78.7655 104.252 89.0748 104.252 101.353C104.252 115.051 88.91 126.258 69.5018 127.312V83.1384L63.7101 90.1463V127.214C55.0434 127.138 46.6079 124.407 39.5411 119.389L35.8575 123.849C35.8865 123.849 35.8979 123.907 35.927 123.93C44.0212 129.767 53.7307 132.943 63.7101 133.017V136.104C63.7101 137.704 65.0067 139 66.6061 139C68.2054 139 69.502 137.704 69.502 136.104V133.098C92.0899 131.998 110.044 118.196 110.044 101.354C110.044 87.094 97.1747 75.0529 79.5214 71.0104Z" fill="#009688"/>
<path d="M54.5357 73.9756L58.7522 68.873C41.7591 66.3653 28.9592 55.9341 28.9592 43.4356C28.9592 29.7381 44.3016 18.531 63.7098 17.4769V62.8728L69.5015 55.8589V17.558C78.2068 17.6286 86.6786 20.3812 93.7631 25.4407C93.9545 25.5659 94.1609 25.6671 94.377 25.7418L97.852 21.5139C97.6957 21.2609 97.5002 21.0342 97.2729 20.842C89.1799 15.0128 79.4749 11.8435 69.5015 11.7721V8.68522C69.5015 7.08588 68.2049 5.78925 66.6055 5.78925C65.0062 5.78925 63.7096 7.08588 63.7096 8.68522V11.6911C41.1217 12.7915 23.1673 26.5875 23.1673 43.4358C23.1675 57.9152 36.448 70.13 54.5357 73.9756Z" fill="#009688"/>
<path d="M14.4799 139C12.8805 139.001 11.5836 137.704 11.5831 136.105C11.5828 135.433 11.8165 134.781 12.2441 134.263L122.288 1.05146C123.307 -0.181643 125.132 -0.355396 126.365 0.663503C127.599 1.6824 127.772 3.50789 126.753 4.741L16.7096 137.952C16.1596 138.616 15.3421 139 14.4799 139Z" fill="#FE0101" fill-opacity="0.3"/>
<path d="M66.6058 75.2905C42.651 75.2905 23.1675 61.0023 23.1675 43.4358C23.1675 26.5818 41.1219 12.7394 63.7098 11.6507V8.68522C63.7098 7.08588 65.0065 5.78925 66.6058 5.78925C68.2051 5.78925 69.5018 7.08588 69.5018 8.68522V11.639C79.5024 11.7335 89.223 14.9536 97.3023 20.8479C98.6046 21.7764 98.9076 23.5845 97.9794 24.8869C97.0509 26.1892 95.2428 26.4922 93.9404 25.564C93.888 25.5265 93.8367 25.4874 93.7868 25.4464C86.7153 20.3286 78.2304 17.5301 69.5018 17.4364V72.3945C69.5018 73.9938 68.2051 75.2905 66.6058 75.2905ZM63.7098 17.4481C44.2959 18.4732 28.9592 29.7381 28.9592 43.4358C28.9592 57.1335 44.2959 68.3984 63.7098 69.4236V17.4481Z" fill="black"/>
<path d="M66.6058 139C65.0064 139 63.7098 137.703 63.7098 136.104V133.15C53.7092 133.056 43.9886 129.836 35.9093 123.941C34.607 123.013 34.304 121.204 35.2322 119.902C36.1607 118.6 37.9688 118.297 39.2712 119.225C39.3236 119.263 39.3749 119.302 39.4248 119.343C46.4963 124.46 54.9812 127.259 63.7098 127.353V72.3945C63.7098 70.7952 65.0064 69.4985 66.6058 69.4985C90.5606 69.4985 110.044 83.7867 110.044 101.353C110.044 118.207 92.0897 132.05 69.5018 133.138V136.104C69.5018 137.703 68.2051 139 66.6058 139ZM69.5018 75.3657V127.341C88.9157 126.316 104.252 115.051 104.252 101.353C104.252 87.6555 88.9157 76.3908 69.5018 75.3657Z" fill="black"/>
</g>
<defs>
<clipPath id="clip0">
<rect width="139" height="139" fill="white"/>
</clipPath>
</defs>
</svg>
