<svg width="139" height="139" viewBox="0 0 139 139" fill="none" xmlns="http://www.w3.org/2000/svg">
<path d="M136.741 88.6763H109.624C108.375 88.6763 107.365 89.6925 107.365 90.95C107.365 92.2073 108.375 93.2238 109.624 93.2238H136.739C137.988 93.2238 139 92.2076 139 90.95C139 89.6928 137.99 88.6763 136.741 88.6763Z" fill="#FE0101" fill-opacity="0.3"/>
<path d="M48.6229 31.8342C49.8724 31.8342 50.8821 30.8178 50.8821 29.5606V2.27366C50.8821 1.01647 49.8724 0 48.6229 0C47.3736 0 46.3636 1.01614 46.3636 2.27366V29.5606C46.3636 30.8178 47.3733 31.8342 48.6229 31.8342Z" fill="#FE0101" fill-opacity="0.3"/>
<path d="M0 54.5664L2.1057 58.5909L20.2571 48.9754V138.052H24.7756V45.2101L21.4635 43.1979L0 54.5664Z" fill="black"/>
<path d="M73.5613 78.9333C64.1353 78.9333 57.5516 81.0909 53.6928 82.8963L57.5133 47.481H99.7316V42.9337H55.4871L53.2412 44.9617L48.7226 86.8365L52.3648 88.8714C52.4324 88.8191 59.4115 83.4829 73.5616 83.4829C80.7146 83.4829 87.1742 86.1387 91.7447 90.9613C96.4054 95.8769 98.7754 102.807 98.4163 110.472C97.6863 126.049 83.9022 134.452 71.302 134.452C57.6218 134.452 47.5655 126.676 47.4639 126.599L44.6759 130.176C45.1324 130.535 56.0109 139 71.302 139C88.5747 139 102.174 126.829 102.93 110.683C103.346 101.763 100.535 93.644 95.0137 87.8188C89.5821 82.0893 81.9638 78.9333 73.5613 78.9333Z" fill="black"/>
</svg>
