<svg width="139" height="139" viewBox="0 0 139 139" fill="none" xmlns="http://www.w3.org/2000/svg">
<path d="M107.96 47.1567C106.723 37.9236 102.175 29.4294 95.1528 23.2385C88.0666 16.9911 78.9564 13.5506 69.4998 13.5506C60.0449 13.5506 50.9358 16.99 43.8504 23.2355C36.829 29.4242 32.28 37.9165 31.041 47.1475C30.8914 48.2617 31.6735 49.2865 32.788 49.4361C33.9002 49.5876 34.927 48.8036 35.0766 47.6891C37.3774 30.5482 52.1759 17.6226 69.4998 17.6226C86.8278 17.6226 101.627 30.552 103.924 47.6975C104.061 48.7202 104.935 49.4633 105.94 49.4633C106.03 49.4633 106.121 49.4573 106.213 49.4451C107.327 49.2958 108.109 48.2712 107.96 47.1567Z" fill="black"/>
<path d="M106.239 54.8987C105.122 54.7607 104.107 55.5532 103.969 56.669C101.822 74.0119 87.0037 87.0901 69.4998 87.0901C51.9831 87.0901 37.1634 74.0013 35.0279 56.6443C34.8905 55.5285 33.8765 54.7347 32.7585 54.8723C31.6425 55.0097 30.8492 56.0256 30.9866 57.1417C33.3729 76.5365 49.9299 91.1621 69.5 91.1621C89.0555 91.1621 105.611 76.5484 108.01 57.1693C108.148 56.0533 107.355 55.0368 106.239 54.8987Z" fill="black"/>
<path d="M81.2812 65.1963H76.7175V30.2729C76.7175 28.8261 75.5407 27.6493 74.0939 27.6493H67.2286C66.6126 27.6493 66.0135 27.8673 65.5422 28.2631L53.0691 38.7304C51.9808 39.644 51.8135 41.2362 52.6885 42.3555L56.7792 47.5908C57.2131 48.1457 57.8635 48.5076 58.5637 48.5837C59.2647 48.6597 59.9768 48.4455 60.5195 47.9962L63.3616 45.6429V65.196H57.5999V65.1963C56.1532 65.1963 54.9763 66.3734 54.9763 67.8199V74.0461C54.9763 75.4929 56.1532 76.6697 57.5999 76.6697H81.2812C82.7279 76.6697 83.9048 75.4926 83.9048 74.0461V67.8199C83.9048 66.3732 82.7279 65.1963 81.2812 65.1963ZM79.8331 72.5983H59.0486V69.2685H64.8103C66.257 69.2685 67.4339 68.0917 67.4339 66.6449V42.5638C67.4336 41.5365 66.8564 40.6267 65.9269 40.1896C64.997 39.7523 63.9285 39.8875 63.1368 40.5428L59.0703 43.9098L56.7581 40.9509L67.7559 31.7215H72.6458V66.6449C72.6458 68.0917 73.8227 69.2685 75.2695 69.2685H79.8331V72.5983Z" fill="#FE0101" fill-opacity="0.3"/>
<path d="M124.715 116.494L106.371 87.7998C108.436 87.3719 110.298 86.2056 111.58 84.5078C113.058 82.5504 113.648 80.0446 113.197 77.6335C112.816 75.5925 113.848 73.5203 115.707 72.5942C117.902 71.5007 119.546 69.5202 120.218 67.161C120.889 64.8018 120.534 62.2523 119.243 60.1665C118.15 58.4011 118.364 56.0962 119.762 54.5615C121.414 52.7485 122.232 50.3079 122.006 47.8656C121.779 45.4231 120.527 43.1744 118.57 41.6956C116.913 40.444 116.28 38.2176 117.029 36.2811C117.915 33.9936 117.796 31.4226 116.703 29.2266C115.609 27.0308 113.629 25.3865 111.27 24.7145C109.273 24.1458 107.878 22.2986 107.877 20.2223C107.877 17.7694 106.837 15.4149 105.024 13.7623C103.211 12.1098 100.771 11.2918 98.3285 11.5174C96.2604 11.7091 94.2929 10.4899 93.5423 8.55391C92.6556 6.26666 90.8353 4.44691 88.5481 3.56078C86.2608 2.67493 83.6896 2.7933 81.4938 3.88629C79.635 4.81124 77.3591 4.38609 75.9602 2.85194C74.3076 1.03951 71.9528 0 69.4999 0C67.0471 0 64.6925 1.03951 63.0394 2.85167C61.6405 4.38555 59.3644 4.81124 57.5058 3.88602C55.3097 2.79303 52.7388 2.67466 50.4515 3.56051C48.1643 4.44663 46.344 6.26639 45.4573 8.55364C44.7069 10.4896 42.7362 11.7083 40.6713 11.5172C38.2283 11.2913 35.7884 12.1093 33.9757 13.7621C32.163 15.4146 31.123 17.7692 31.1224 20.222C31.1222 22.2983 29.727 24.1458 27.73 24.7143C25.3708 25.3859 23.3906 27.0306 22.2973 29.2263C21.204 31.4221 21.0849 33.9933 21.9704 36.2808C22.72 38.2171 22.0866 40.4438 20.43 41.6953C18.4729 43.1741 17.2206 45.4228 16.9941 47.8653C16.768 50.3076 17.5857 52.7482 19.2377 54.5612C20.6361 56.0959 20.8498 58.4008 19.757 60.1665C18.4661 62.2523 18.111 64.8018 18.7821 67.161C19.4535 69.5202 21.0976 71.5007 23.2931 72.5942C25.1517 73.5203 26.1836 75.5925 25.8024 77.6335C25.352 80.0448 25.9417 82.5504 27.4199 84.5078C28.7022 86.2054 30.564 87.3719 32.6289 87.7998L14.2847 116.494C13.6096 117.55 13.5938 118.872 14.2435 119.944C14.8931 121.016 16.0749 121.614 17.3213 121.504L35.2251 119.929L41.3099 136.84C41.7345 138.02 42.7718 138.84 44.0176 138.979C44.1423 138.993 44.2663 139 44.3896 139C45.497 139 46.5243 138.444 47.1318 137.494L69.4999 102.505L91.8678 137.493C92.4753 138.443 93.5024 138.999 94.61 138.999C94.7333 138.999 94.8576 138.993 94.9822 138.979C96.2281 138.839 97.2654 138.019 97.69 136.84L103.775 119.928L121.679 121.503C122.928 121.613 124.107 121.016 124.757 119.944C125.406 118.872 125.39 117.55 124.715 116.494ZM18.5997 117.304L36.4845 89.3282C37.1209 89.9752 37.5748 90.8048 37.7494 91.7371C38.0781 93.4942 38.942 95.0967 40.1927 96.3377L27.456 116.524L18.5997 117.304ZM39.6193 120.114L38.8459 117.964C38.3445 116.571 36.964 115.687 35.4879 115.818L32.5537 116.076L43.674 98.4509C45.302 98.9719 47.0656 99.0137 48.7352 98.5389C50.1442 98.1382 51.632 98.439 52.7708 99.2694L39.6193 120.114ZM44.5856 133.917L41.368 124.974L55.5704 102.464C56.7549 103.528 58.2192 104.266 59.8107 104.563C61.0115 104.787 62.2358 104.754 63.404 104.481L44.5856 133.917ZM70.7686 98.0364C70.6383 98.0076 70.5052 97.9921 70.3717 97.9891C70.0817 97.9603 69.7912 97.9408 69.4999 97.9408C69.2089 97.9408 68.9187 97.9603 68.6287 97.9891C68.4944 97.9918 68.3611 98.0076 68.2302 98.0364C66.8087 98.2427 65.4282 98.7938 64.2318 99.697C63.1706 100.498 61.8658 100.804 60.5586 100.56C59.2514 100.316 58.1459 99.5588 57.4455 98.4281C57.2973 98.1889 57.1357 97.9614 56.9674 97.7407C56.9416 97.707 56.9156 97.6737 56.8873 97.6416C54.7212 94.8861 51.0464 93.6484 47.6211 94.6222C46.3421 94.986 45.0148 94.8008 43.8841 94.1007C42.7534 93.4005 41.9959 92.295 41.7513 90.9878C41.2298 88.201 39.3815 85.8991 36.9189 84.7155C36.7929 84.6419 36.6626 84.5832 36.529 84.5393C35.7249 84.2002 34.8643 83.9732 33.9651 83.8899C32.6411 83.7669 31.4705 83.1148 30.6691 82.0536C29.8676 80.9923 29.5606 79.6878 29.8049 78.3804C30.5181 74.5603 28.5871 70.6822 25.1085 68.9493C23.9183 68.3564 23.0624 67.3253 22.6983 66.0463C22.3345 64.7671 22.5194 63.4398 23.2193 62.3091C25.2646 59.0048 24.8647 54.6907 22.2471 51.8181C21.3512 50.8354 20.9258 49.5645 21.0482 48.2405C21.1709 46.9162 21.8228 45.7456 22.884 44.9439C25.9846 42.6012 27.1704 38.4342 25.7671 34.8102C25.2869 33.5701 25.3491 32.2317 25.942 31.0412C26.5346 29.8507 27.5655 28.9945 28.8447 28.6304C32.5822 27.5659 35.1931 24.1086 35.1939 20.2226C35.1942 18.8926 35.7355 17.6671 36.7183 16.7709C37.701 15.875 38.9716 15.4485 40.2959 15.5715C44.167 15.9301 47.8488 13.6486 49.2535 10.0251C49.7343 8.78522 50.682 7.83747 51.9222 7.35721C53.162 6.87696 54.501 6.93858 55.6912 7.53123C59.1705 9.26249 63.429 8.4665 66.0477 5.59528C66.9439 4.61278 68.1697 4.07171 69.4997 4.07171C70.8297 4.07171 72.0554 4.61278 72.9516 5.59528C75.57 8.4665 79.8291 9.26249 83.3082 7.53123C84.4986 6.93886 85.837 6.87696 87.0772 7.35721C88.3173 7.83747 89.2651 8.78522 89.7456 10.0251C91.1502 13.6483 94.8316 15.9296 98.7035 15.5715C100.027 15.4485 101.298 15.875 102.281 16.7709C103.264 17.6671 103.805 18.8926 103.805 20.2226C103.806 24.1086 106.417 27.5659 110.154 28.6304C111.433 28.9945 112.464 29.8507 113.057 31.0412C113.65 32.2317 113.712 33.5701 113.231 34.8102C111.828 38.4342 113.014 42.6012 116.115 44.9439C117.176 45.7456 117.828 46.9162 117.95 48.2405C118.073 49.5648 117.647 50.8354 116.751 51.8181C114.134 54.6907 113.734 59.0046 115.779 62.3088C116.479 63.4398 116.664 64.7668 116.3 66.0461C115.936 67.3253 115.08 68.3561 113.89 68.949C110.411 70.6819 108.48 74.5603 109.194 78.3801C109.438 79.6876 109.131 80.9918 108.329 82.0533C107.528 83.1145 106.357 83.7666 105.033 83.8896C104.133 83.9732 103.272 84.2004 102.467 84.5401C102.335 84.5838 102.205 84.6422 102.08 84.7149C99.6173 85.8983 97.7685 88.2005 97.2469 90.9875C97.0023 92.2947 96.2449 93.4002 95.1142 94.1004C93.9834 94.8005 92.6559 94.9854 91.3772 94.6222C87.9511 93.6478 84.2757 94.8863 82.1098 97.643C82.0827 97.6739 82.0577 97.7062 82.0327 97.7385C81.8639 97.9598 81.7018 98.1878 81.553 98.4278C80.8529 99.5586 79.7471 100.316 78.4399 100.56C77.1333 100.804 75.8282 100.498 74.7667 99.6967C73.5708 98.7935 72.1906 98.2427 70.7686 98.0364ZM94.4143 133.917L75.5937 104.477C76.2463 104.63 76.9155 104.711 77.5891 104.711C78.1223 104.711 78.6582 104.662 79.1892 104.563C80.7806 104.266 82.2448 103.529 83.4292 102.464L97.6319 124.975L94.4143 133.917ZM103.512 115.818C102.035 115.688 100.655 116.571 100.154 117.965L99.3803 120.115L86.2285 99.2702C87.3677 98.4395 88.8554 98.1384 90.2649 98.5394C91.934 99.014 93.6976 98.9722 95.3257 98.4515L106.445 116.076L103.512 115.818ZM111.543 116.524L98.8069 96.3382C100.058 95.0973 100.922 93.4944 101.251 91.7371C101.425 90.8048 101.879 89.9752 102.515 89.3285L120.4 117.304L111.543 116.524Z" fill="black"/>
</svg>
