<svg width="49" height="52" viewBox="0 0 49 52" fill="none" xmlns="http://www.w3.org/2000/svg">
<path d="M35.4773 3H13.5219C6.06591 3 0 9.0662 0 16.5221V38.4776C0 45.9338 6.06591 51.9997 13.5219 51.9997H35.4773C42.9338 51.9997 48.9997 45.9335 48.9997 38.4776V16.5221C49 9.0662 42.9338 3 35.4773 3ZM44.6525 38.4776C44.6525 43.5366 40.5366 47.6522 35.4776 47.6522H13.5219C8.46312 47.6525 4.34749 43.5366 4.34749 38.4776V16.5221C4.34749 11.4634 8.46312 7.34749 13.5219 7.34749H35.4773C40.5363 7.34749 44.6522 11.4634 44.6522 16.5221V38.4776H44.6525Z" fill="white"/>
<path d="M24.4998 14.8745C17.5378 14.8745 11.8739 20.5384 11.8739 27.5005C11.8739 34.4623 17.5378 40.1259 24.4998 40.1259C31.4619 40.1259 37.1258 34.4623 37.1258 27.5005C37.1258 20.5384 31.4619 14.8745 24.4998 14.8745ZM24.4998 35.7781C19.9353 35.7781 16.2213 32.0648 16.2213 27.5002C16.2213 22.9353 19.935 19.2217 24.4998 19.2217C29.0647 19.2217 32.7783 22.9353 32.7783 27.5002C32.7783 32.0648 29.0644 35.7781 24.4998 35.7781Z" fill="white"/>
<path d="M37.6554 11.188C36.8178 11.188 35.9949 11.5271 35.4034 12.1213C34.8089 12.7125 34.4672 13.5356 34.4672 14.3761C34.4672 15.2141 34.8092 16.0369 35.4034 16.631C35.9946 17.2223 36.8178 17.5643 37.6554 17.5643C38.4959 17.5643 39.3161 17.2223 39.9103 16.631C40.5044 16.0369 40.8435 15.2138 40.8435 14.3761C40.8435 13.5356 40.5044 12.7125 39.9103 12.1213C39.319 11.5271 38.4959 11.188 37.6554 11.188Z" fill="white"/>
</svg>
