<svg width="49" height="49" viewBox="0 0 49 49" fill="none" xmlns="http://www.w3.org/2000/svg">
<g clip-path="url(#clip0)">
<path d="M39.6731 33.9865C39.4787 33.9865 39.2844 33.9154 39.1327 33.7717L30.0412 25.2426C29.7236 24.9456 29.7078 24.4447 30.0064 24.1271C30.3051 23.8064 30.8028 23.7922 31.1235 24.0924L40.215 32.6214C40.5326 32.9184 40.5484 33.4193 40.2498 33.7369C40.0934 33.9028 39.8848 33.9865 39.6731 33.9865Z" fill="#0ABDF0"/>
<path d="M9.32538 33.9866C9.11523 33.9866 8.90509 33.9028 8.74867 33.7369C8.45004 33.4193 8.46584 32.9185 8.78343 32.6214L17.8781 24.0924C18.1973 23.7954 18.6981 23.808 18.9952 24.1272C19.2938 24.4447 19.278 24.9456 18.9604 25.2427L9.86575 33.7717C9.71407 33.9155 9.51972 33.9866 9.32538 33.9866Z" fill="#0ABDF0"/>
<path d="M45.0499 41.9167H3.95008C1.7728 41.9167 0 40.1455 0 37.9666V11.0318C0 8.85294 1.7728 7.08173 3.95008 7.08173H45.0499C47.2272 7.08173 49 8.85294 49 11.0318V37.9666C49 40.1455 47.2272 41.9167 45.0499 41.9167ZM3.95008 8.66176C2.6434 8.66176 1.58003 9.72512 1.58003 11.0318V37.9666C1.58003 39.2733 2.6434 40.3367 3.95008 40.3367H45.0499C46.3566 40.3367 47.42 39.2733 47.42 37.9666V11.0318C47.42 9.72512 46.3566 8.66176 45.0499 8.66176H3.95008Z" fill="#0ABDF0"/>
<path d="M24.5 28.469C23.4493 28.469 22.3986 28.1198 21.5991 27.423L1.31143 9.72508C0.982782 9.4391 0.948021 8.9398 1.23401 8.60958C1.52315 8.28093 2.02086 8.25091 2.34951 8.53374L22.6371 26.2301C23.6468 27.1102 25.3532 27.1102 26.3613 26.2301L46.6236 8.56218C46.9507 8.27619 47.4484 8.30779 47.7391 8.63802C48.0251 8.96825 47.9919 9.46596 47.6633 9.75352L27.4009 27.4215C26.5999 28.1198 25.5507 28.469 24.5 28.469Z" fill="#0ABDF0"/>
</g>
<defs>
<clipPath id="clip0">
<rect width="49" height="49" fill="white"/>
</clipPath>
</defs>
</svg>
