<svg width="49" height="49" viewBox="0 0 49 49" fill="none" xmlns="http://www.w3.org/2000/svg">
<g clip-path="url(#clip0)">
<path d="M38.7254 30.3537C37.7223 29.3092 36.5123 28.7508 35.2299 28.7508C33.9579 28.7508 32.7375 29.2989 31.693 30.3434L28.425 33.6011C28.1561 33.4563 27.8873 33.3218 27.6287 33.1874C27.2564 33.0012 26.9048 32.8254 26.6049 32.6393C23.5437 30.695 20.7618 28.1613 18.0936 24.8829C16.8009 23.2489 15.9322 21.8735 15.3013 20.4773C16.1493 19.7017 16.9353 18.895 17.7006 18.1194C17.9902 17.8298 18.2797 17.5299 18.5693 17.2403C20.7411 15.0686 20.7411 12.2556 18.5693 10.0838L15.746 7.26052C15.4254 6.93992 15.0945 6.60898 14.7842 6.27805C14.1637 5.63685 13.5122 4.97498 12.84 4.35447C11.8368 3.36166 10.6372 2.83423 9.37546 2.83423C8.11376 2.83423 6.89343 3.36166 5.85926 4.35447C5.84891 4.36481 5.84891 4.36481 5.83857 4.37516L2.32237 7.92239C0.998618 9.24614 0.243668 10.8595 0.0781994 12.7313C-0.170003 15.7511 0.71939 18.5641 1.40195 20.4049C3.07732 24.9243 5.58003 29.1127 9.31341 33.6011C13.8431 39.0098 19.2932 43.281 25.519 46.2904C27.8976 47.4177 31.0725 48.7518 34.6198 48.9793C34.8369 48.9896 35.0644 49 35.2713 49C37.6602 49 39.6665 48.1416 41.2385 46.4352C41.2488 46.4145 41.2695 46.4042 41.2799 46.3835C41.8176 45.732 42.4381 45.1425 43.0897 44.5117C43.5344 44.0876 43.9894 43.6429 44.4341 43.1776C45.4579 42.1124 45.9957 40.8713 45.9957 39.5993C45.9957 38.3169 45.4476 37.0862 44.4031 36.0521L38.7254 30.3537ZM42.4278 41.2436C42.4175 41.2436 42.4175 41.254 42.4278 41.2436C42.0245 41.678 41.6108 42.071 41.1661 42.5053C40.4939 43.1465 39.8113 43.8188 39.1701 44.5737C38.1256 45.6906 36.8949 46.218 35.2816 46.218C35.1265 46.218 34.961 46.218 34.8059 46.2077C31.7344 46.0112 28.8801 44.8116 26.7393 43.7877C20.8859 40.9541 15.746 36.9311 11.4748 31.8326C7.9483 27.5821 5.59037 23.6523 4.02876 19.4328C3.06697 16.8577 2.71535 14.8514 2.87048 12.9588C2.9739 11.7489 3.43928 10.7457 4.29765 9.88733L7.82419 6.36078C8.33094 5.88506 8.86871 5.62651 9.39615 5.62651C10.0477 5.62651 10.5751 6.0195 10.906 6.35044C10.9164 6.36078 10.9267 6.37112 10.9371 6.38146C11.5679 6.97095 12.1677 7.58111 12.7986 8.23264C13.1192 8.56358 13.4501 8.89452 13.7811 9.2358L16.6044 12.0591C17.7006 13.1553 17.7006 14.1688 16.6044 15.2651C16.3045 15.565 16.0149 15.8649 15.715 16.1545C14.8463 17.0438 14.0189 17.8712 13.1192 18.6779C13.0985 18.6985 13.0778 18.7089 13.0675 18.7296C12.1781 19.619 12.3436 20.4877 12.5297 21.0772C12.54 21.1082 12.5504 21.1392 12.5607 21.1702C13.295 22.949 14.3292 24.6244 15.9011 26.6204L15.9115 26.6307C18.7658 30.1469 21.7753 32.8875 25.095 34.9869C25.519 35.2557 25.9533 35.4729 26.367 35.6798C26.7393 35.8659 27.0909 36.0417 27.3908 36.2279C27.4322 36.2486 27.4736 36.2796 27.5149 36.3003C27.8666 36.4761 28.1975 36.5588 28.5388 36.5588C29.3972 36.5588 29.9349 36.021 30.1107 35.8452L33.6476 32.3083C33.9992 31.9567 34.5577 31.5327 35.2092 31.5327C35.8504 31.5327 36.3779 31.936 36.6984 32.2877C36.7088 32.298 36.7088 32.298 36.7191 32.3083L42.4175 38.0067C43.4827 39.0615 43.4827 40.1474 42.4278 41.2436Z" fill="#0ABDF0"/>
<path d="M26.4808 11.6558C29.1903 12.1108 31.6517 13.3932 33.6166 15.3581C35.5815 17.3231 36.8536 19.7844 37.3189 22.494C37.4327 23.1765 38.0222 23.6522 38.6944 23.6522C38.7771 23.6522 38.8495 23.6419 38.9323 23.6316C39.6976 23.5075 40.2043 22.7835 40.0802 22.0182C39.5217 18.7399 37.9705 15.7511 35.6022 13.3829C33.234 11.0146 30.2452 9.46332 26.9668 8.90486C26.2015 8.78076 25.488 9.28751 25.3535 10.0425C25.2191 10.7974 25.7155 11.5317 26.4808 11.6558Z" fill="#0ABDF0"/>
<path d="M48.9431 21.6149C48.0227 16.2165 45.4786 11.3042 41.5694 7.39498C37.6602 3.48578 32.7479 0.941704 27.3495 0.0212849C26.5945 -0.113158 25.8809 0.403931 25.7465 1.15888C25.6224 1.92417 26.1291 2.63776 26.8944 2.7722C31.7137 3.5892 36.109 5.87474 39.6045 9.35992C43.1 12.8554 45.3752 17.2507 46.1922 22.07C46.306 22.7525 46.8955 23.2283 47.5677 23.2283C47.6504 23.2283 47.7228 23.2179 47.8055 23.2076C48.5605 23.0938 49.0776 22.3699 48.9431 21.6149Z" fill="#0ABDF0"/>
</g>
<defs>
<clipPath id="clip0">
<rect width="49" height="49" fill="white"/>
</clipPath>
</defs>
</svg>
