<svg width="49" height="49" viewBox="0 0 49 49" fill="none" xmlns="http://www.w3.org/2000/svg">
<g clip-path="url(#clip0)">
<path d="M38.7254 30.354C37.7223 29.3095 36.5123 28.751 35.2299 28.751C33.9579 28.751 32.7375 29.2991 31.693 30.3436L28.425 33.6013C28.1561 33.4565 27.8873 33.3221 27.6287 33.1876C27.2564 33.0015 26.9048 32.8257 26.6049 32.6395C23.5437 30.6953 20.7618 28.1615 18.0936 24.8832C16.8009 23.2492 15.9322 21.8737 15.3013 20.4776C16.1493 19.7019 16.9353 18.8953 17.7006 18.1196C17.9902 17.8301 18.2797 17.5302 18.5693 17.2406C20.7411 15.0688 20.7411 12.2558 18.5693 10.0841L15.746 7.26076C15.4254 6.94016 15.0945 6.60923 14.7842 6.27829C14.1637 5.6371 13.5122 4.97522 12.84 4.35472C11.8368 3.3619 10.6372 2.83447 9.37546 2.83447C8.11376 2.83447 6.89343 3.3619 5.85926 4.35472C5.84891 4.36506 5.84891 4.36506 5.83857 4.3754L2.32237 7.92264C0.998618 9.24638 0.243668 10.8597 0.0781994 12.7316C-0.170003 15.7514 0.71939 18.5643 1.40195 20.4052C3.07732 24.9245 5.58003 29.113 9.31341 33.6013C13.8431 39.0101 19.2932 43.2812 25.519 46.2907C27.8976 47.4179 31.0725 48.752 34.6198 48.9795C34.8369 48.9899 35.0644 49.0002 35.2713 49.0002C37.6602 49.0002 39.6665 48.1419 41.2385 46.4355C41.2488 46.4148 41.2695 46.4044 41.2799 46.3838C41.8176 45.7322 42.4381 45.1427 43.0897 44.5119C43.5344 44.0879 43.9894 43.6432 44.4341 43.1778C45.4579 42.1126 45.9957 40.8716 45.9957 39.5995C45.9957 38.3172 45.4476 37.0865 44.4031 36.0523L38.7254 30.354ZM42.4278 41.2439C42.4175 41.2439 42.4175 41.2542 42.4278 41.2439C42.0245 41.6782 41.6108 42.0712 41.1661 42.5056C40.4939 43.1468 39.8113 43.819 39.1701 44.5739C38.1256 45.6909 36.8949 46.2183 35.2816 46.2183C35.1265 46.2183 34.961 46.2183 34.8059 46.208C31.7344 46.0115 28.8801 44.8118 26.7393 43.788C20.8859 40.9543 15.746 36.9314 11.4748 31.8329C7.9483 27.5824 5.59037 23.6525 4.02876 19.4331C3.06697 16.8579 2.71535 14.8516 2.87048 12.9591C2.9739 11.7491 3.43928 10.7459 4.29765 9.88758L7.82419 6.36102C8.33094 5.8853 8.86871 5.62676 9.39615 5.62676C10.0477 5.62676 10.5751 6.01974 10.906 6.35068C10.9164 6.36102 10.9267 6.37137 10.9371 6.38171C11.5679 6.97119 12.1677 7.58136 12.7986 8.23289C13.1192 8.56383 13.4501 8.89476 13.7811 9.23604L16.6044 12.0594C17.7006 13.1556 17.7006 14.1691 16.6044 15.2653C16.3045 15.5652 16.0149 15.8651 15.715 16.1547C14.8463 17.0441 14.0189 17.8714 13.1192 18.6781C13.0985 18.6988 13.0778 18.7091 13.0675 18.7298C12.1781 19.6192 12.3436 20.4879 12.5297 21.0774C12.54 21.1084 12.5504 21.1394 12.5607 21.1705C13.295 22.9493 14.3292 24.6246 15.9011 26.6206L15.9115 26.6309C18.7658 30.1471 21.7753 32.8877 25.095 34.9871C25.519 35.256 25.9533 35.4732 26.367 35.68C26.7393 35.8662 27.0909 36.042 27.3908 36.2281C27.4322 36.2488 27.4736 36.2798 27.5149 36.3005C27.8666 36.4763 28.1975 36.5591 28.5388 36.5591C29.3972 36.5591 29.9349 36.0213 30.1107 35.8455L33.6476 32.3086C33.9992 31.957 34.5577 31.5329 35.2092 31.5329C35.8504 31.5329 36.3779 31.9363 36.6984 32.2879C36.7088 32.2982 36.7088 32.2982 36.7191 32.3086L42.4175 38.0069C43.4827 39.0618 43.4827 40.1477 42.4278 41.2439Z" fill="white"/>
<path d="M26.4808 11.6558C29.1903 12.1109 31.6517 13.3933 33.6166 15.3582C35.5816 17.3231 36.8536 19.7845 37.319 22.494C37.4327 23.1766 38.0222 23.6523 38.6944 23.6523C38.7772 23.6523 38.8496 23.642 38.9323 23.6316C39.6976 23.5075 40.2043 22.7836 40.0802 22.0183C39.5218 18.74 37.9705 15.7512 35.6022 13.3829C33.234 11.0146 30.2452 9.46338 26.9669 8.90492C26.2016 8.78082 25.488 9.28757 25.3536 10.0425C25.2191 10.7975 25.7155 11.5317 26.4808 11.6558Z" fill="white"/>
<path d="M48.9432 21.6149C48.0227 16.2165 45.4787 11.3042 41.5695 7.39498C37.6603 3.48578 32.7479 0.941704 27.3495 0.0212849C26.5946 -0.113158 25.881 0.403931 25.7465 1.15888C25.6224 1.92417 26.1292 2.63776 26.8945 2.7722C31.7137 3.5892 36.109 5.87474 39.6045 9.35992C43.1001 12.8554 45.3752 17.2507 46.1922 22.07C46.306 22.7525 46.8955 23.2283 47.5677 23.2283C47.6504 23.2283 47.7228 23.2179 47.8056 23.2076C48.5605 23.0938 49.0776 22.3699 48.9432 21.6149Z" fill="white"/>
</g>
<defs>
<clipPath id="clip0">
<rect width="49" height="49" fill="white"/>
</clipPath>
</defs>
</svg>
