<svg width="49" height="27" viewBox="0 0 49 27" fill="none" xmlns="http://www.w3.org/2000/svg">
<path d="M48.7402 23.7022C48.6809 23.5821 48.6256 23.4826 48.5742 23.4028C47.7241 21.9654 46.0995 20.2011 43.7014 18.1094L43.6507 18.0615L43.6253 18.038L43.5997 18.0139H43.5739C42.4856 17.0399 41.7963 16.385 41.5077 16.0497C40.9796 15.411 40.8613 14.7645 41.1499 14.1094C41.3538 13.6145 42.1198 12.5692 43.4461 10.9723C44.1437 10.1259 44.6962 9.44764 45.1042 8.9366C48.0468 5.26403 49.3226 2.91722 48.9312 1.89522L48.7792 1.6564C48.6771 1.51262 48.4135 1.38108 47.9887 1.26112C47.563 1.14142 47.0189 1.12162 46.3555 1.2014L39.0081 1.24904C38.8891 1.20945 38.7191 1.21314 38.4977 1.26112C38.2765 1.30911 38.1659 1.33318 38.1659 1.33318L38.0381 1.39316L37.9365 1.46522C37.8515 1.51287 37.7579 1.59667 37.6558 1.71646C37.5542 1.83583 37.4692 1.97592 37.4013 2.13556C36.6014 4.06755 35.6919 5.86382 34.6711 7.52428C34.0418 8.51439 33.4638 9.37247 32.936 10.099C32.4089 10.8253 31.9666 11.3604 31.6097 11.7034C31.2523 12.0468 30.9297 12.3218 30.64 12.5296C30.3508 12.7375 30.13 12.8253 29.9771 12.7932C29.8238 12.7611 29.6795 12.7292 29.5429 12.6973C29.3049 12.5535 29.1135 12.358 28.9692 12.1105C28.8243 11.8631 28.7267 11.5516 28.6757 11.1764C28.6249 10.8009 28.5949 10.4779 28.5863 10.2064C28.5784 9.93519 28.582 9.55157 28.5993 9.05664C28.617 8.56146 28.6249 8.22641 28.6249 8.05075C28.6249 7.44392 28.6375 6.78532 28.6628 6.0748C28.6886 5.36428 28.7094 4.80131 28.7268 4.38658C28.7441 3.97142 28.7522 3.53219 28.7522 3.06914C28.7522 2.60608 28.7222 2.24293 28.6628 1.97936C28.6042 1.71612 28.5142 1.46061 28.3956 1.21289C28.2763 0.965422 28.1017 0.773992 27.8726 0.638095C27.6431 0.502367 27.3577 0.394656 27.018 0.314628C26.1165 0.123114 24.9685 0.0195141 23.5735 0.0034078C20.4102 -0.0284692 18.3776 0.163296 17.4761 0.578451C17.119 0.753859 16.7958 0.993523 16.5068 1.29669C16.2006 1.64809 16.1578 1.83986 16.3789 1.8714C17.3996 2.01493 18.1221 2.35828 18.5473 2.90111L18.7006 3.18876C18.8198 3.39629 18.9388 3.76372 19.0579 4.29053C19.1769 4.81734 19.2536 5.4001 19.2874 6.03848C19.3723 7.20425 19.3723 8.20217 19.2874 9.03231C19.2023 9.86279 19.1218 10.5093 19.0451 10.9724C18.9683 11.4354 18.8536 11.8106 18.7006 12.098C18.5473 12.3854 18.4454 12.561 18.3943 12.6248C18.3433 12.6885 18.3007 12.7287 18.2669 12.7445C18.0459 12.824 17.816 12.8645 17.578 12.8645C17.3397 12.8645 17.0507 12.7526 16.7106 12.529C16.3706 12.3053 16.0177 11.9981 15.652 11.6069C15.2862 11.2155 14.8738 10.6687 14.4144 9.96622C13.9553 9.26376 13.4791 8.43353 12.9858 7.47554L12.5777 6.78079C12.3226 6.33384 11.9741 5.68305 11.5319 4.829C11.0894 3.97461 10.6983 3.14816 10.3583 2.34981C10.2223 2.01451 10.0182 1.75924 9.74606 1.58358L9.61837 1.51152C9.53348 1.44777 9.39721 1.38007 9.21028 1.30793C9.02307 1.23587 8.82773 1.1842 8.62346 1.1524L1.6331 1.20005C0.918776 1.20005 0.4341 1.35197 0.178894 1.65539L0.0767583 1.79892C0.025735 1.87886 0 2.00654 0 2.18228C0 2.35794 0.0510232 2.57353 0.153159 2.8288C1.17362 5.08032 2.28336 7.25173 3.48236 9.34336C4.68136 11.435 5.72327 13.1199 6.60746 14.3965C7.49184 15.674 8.39328 16.8797 9.31179 18.013C10.2303 19.1467 10.8383 19.8733 11.1358 20.1924C11.4336 20.5122 11.6675 20.7513 11.8376 20.9109L12.4755 21.4856C12.8837 21.8689 13.4831 22.3279 14.274 22.8627C15.0651 23.3978 15.9409 23.9247 16.9018 24.444C17.863 24.9625 18.9811 25.3856 20.2569 25.7129C21.5324 26.0404 22.774 26.1719 23.9816 26.1085H26.9156C27.5106 26.0602 27.9615 25.8846 28.2679 25.5814L28.3694 25.4614C28.4376 25.3661 28.5015 25.218 28.5605 25.0188C28.6202 24.8192 28.6499 24.5994 28.6499 24.3602C28.6324 23.6737 28.6881 23.0551 28.8154 22.5043C28.9425 21.9536 29.0874 21.5385 29.2495 21.2589C29.4115 20.9796 29.5944 20.7438 29.7978 20.5527C30.0018 20.3612 30.1471 20.2452 30.2323 20.2053C30.317 20.1651 30.3847 20.1378 30.4357 20.1215C30.8439 19.9938 31.3242 20.1174 31.8776 20.493C32.4304 20.8682 32.9489 21.3315 33.434 21.8822C33.9187 22.4333 34.5012 23.0516 35.1814 23.7381C35.862 24.4248 36.4571 24.9352 36.9672 25.271L37.4772 25.5584C37.8179 25.7502 38.2601 25.9259 38.8045 26.0855C39.3479 26.245 39.824 26.285 40.2328 26.2052L46.7636 26.1096C47.4096 26.1096 47.9123 26.0092 48.2688 25.8099C48.626 25.6104 48.8383 25.3905 48.9067 25.1513C48.975 24.9119 48.9786 24.6403 48.9197 24.3366C48.8592 24.0337 48.7996 23.8219 48.7402 23.7022Z" fill="white"/>
</svg>
