<svg width="41" height="33" viewBox="0 0 41 33" fill="none" xmlns="http://www.w3.org/2000/svg">
<g filter="url(#filter0_d)">
<path d="M40.7826 21.9298C40.733 21.8228 40.6867 21.7341 40.6437 21.663C39.9324 20.3818 38.573 18.8093 36.5664 16.9449L36.524 16.9022L36.5028 16.8813L36.4814 16.8598H36.4598C35.5491 15.9917 34.9725 15.408 34.7309 15.1091C34.2891 14.5398 34.1901 13.9636 34.4316 13.3797C34.6022 12.9386 35.2431 12.007 36.3528 10.5836C36.9366 9.82925 37.3988 9.22468 37.7402 8.76918C40.2024 5.49581 41.2699 3.40408 40.9424 2.49318L40.8153 2.28031C40.7298 2.15216 40.5092 2.03492 40.1538 1.928C39.7976 1.8213 39.3424 1.80366 38.7872 1.87476L32.6394 1.91723C32.5399 1.88194 32.3976 1.88523 32.2124 1.928C32.0273 1.97077 31.9347 1.99223 31.9347 1.99223L31.8278 2.04569L31.7428 2.10991C31.6716 2.15238 31.5934 2.22707 31.5079 2.33384C31.4229 2.44024 31.3518 2.5651 31.295 2.70739C30.6256 4.42939 29.8646 6.03041 29.0105 7.51038C28.4839 8.39287 28.0003 9.15768 27.5587 9.80525C27.1176 10.4526 26.7476 10.9296 26.449 11.2353C26.1499 11.5413 25.88 11.7865 25.6376 11.9717C25.3956 12.157 25.2108 12.2352 25.0829 12.2066C24.9546 12.178 24.8339 12.1496 24.7196 12.1211C24.5205 11.993 24.3603 11.8187 24.2396 11.5981C24.1183 11.3776 24.0366 11.0999 23.9939 10.7655C23.9515 10.4308 23.9263 10.143 23.9192 9.90096C23.9125 9.65923 23.9156 9.31731 23.93 8.87618C23.9448 8.43482 23.9515 8.13619 23.9515 7.97963C23.9515 7.43875 23.962 6.85174 23.9832 6.21845C24.0047 5.58516 24.0221 5.08339 24.0367 4.71373C24.0512 4.3437 24.0579 3.95221 24.0579 3.53949C24.0579 3.12677 24.0328 2.80309 23.9832 2.56817C23.9341 2.33354 23.8588 2.1058 23.7596 1.88501C23.6598 1.66444 23.5137 1.49382 23.322 1.37269C23.1299 1.25172 22.8911 1.15571 22.6069 1.08438C21.8526 0.913687 20.892 0.821348 19.7248 0.806992C17.0779 0.77858 15.3772 0.949501 14.6229 1.31953C14.324 1.47587 14.0536 1.68949 13.8118 1.9597C13.5556 2.27291 13.5198 2.44383 13.7048 2.47194C14.5588 2.59987 15.1634 2.9059 15.5192 3.38973L15.6474 3.64611C15.7472 3.83109 15.8468 4.15857 15.9464 4.62812C16.046 5.09767 16.1102 5.61709 16.1384 6.18608C16.2095 7.22514 16.2095 8.11458 16.1384 8.8545C16.0672 9.59471 15.9999 10.1709 15.9357 10.5837C15.8714 10.9964 15.7754 11.3308 15.6474 11.5869C15.5192 11.8431 15.4339 11.9996 15.3911 12.0565C15.3484 12.1133 15.3128 12.1491 15.2846 12.1632C15.0996 12.234 14.9072 12.2702 14.7081 12.2702C14.5087 12.2702 14.2669 12.1704 13.9823 11.9711C13.6978 11.7717 13.4026 11.4979 13.0966 11.1492C12.7905 10.8004 12.4454 10.313 12.061 9.6869C11.6769 9.06078 11.2784 8.3208 10.8657 7.46694L10.5242 6.8477C10.3108 6.44934 10.0192 5.86928 9.64912 5.10806C9.27887 4.34654 8.9516 3.60992 8.66711 2.89835C8.55339 2.5995 8.38254 2.37198 8.15487 2.21541L8.04803 2.15118C7.977 2.09436 7.86297 2.03402 7.70656 1.96972C7.54992 1.90549 7.38647 1.85944 7.21555 1.8311L1.36647 1.87357C0.768771 1.87357 0.363226 2.00897 0.149687 2.27941L0.0642263 2.40734C0.0215334 2.4786 0 2.59239 0 2.74903C0 2.9056 0.0426929 3.09776 0.128154 3.32528C0.982012 5.33207 1.91056 7.26746 2.91381 9.13174C3.91706 10.996 4.78886 12.4977 5.5287 13.6356C6.26868 14.7742 7.02295 15.8489 7.79149 16.859C8.56004 17.8695 9.06877 18.5171 9.31767 18.8016C9.56688 19.0866 9.76262 19.2997 9.90491 19.442L10.4387 19.9542C10.7802 20.2958 11.2818 20.705 11.9435 21.1816C12.6055 21.6586 13.3383 22.1281 14.1423 22.591C14.9466 23.0531 15.8821 23.4303 16.9496 23.7219C18.0169 24.0139 19.0558 24.1311 20.0663 24.0746H22.5212C23.0191 24.0316 23.3963 23.875 23.6527 23.6048L23.7376 23.4978C23.7948 23.4129 23.8482 23.2809 23.8976 23.1033C23.9475 22.9254 23.9723 22.7295 23.9723 22.5163C23.9578 21.9045 24.0043 21.3531 24.1108 20.8621C24.2172 20.3713 24.3385 20.0013 24.4741 19.7521C24.6097 19.5031 24.7626 19.293 24.9329 19.1227C25.1035 18.952 25.2251 18.8486 25.2964 18.813C25.3673 18.7772 25.4239 18.7529 25.4666 18.7383C25.8081 18.6245 26.2101 18.7347 26.6731 19.0695C27.1356 19.4039 27.5695 19.8169 27.9754 20.3076C28.381 20.7989 28.8683 21.35 29.4375 21.9618C30.007 22.5739 30.5049 23.0288 30.9317 23.3281L31.3585 23.5843C31.6435 23.7552 32.0136 23.9118 32.469 24.0541C32.9237 24.1963 33.3221 24.2319 33.6641 24.1608L39.1288 24.0755C39.6693 24.0755 40.0898 23.986 40.3882 23.8085C40.6871 23.6306 40.8647 23.4346 40.9219 23.2214C40.9791 23.0081 40.9821 22.766 40.9328 22.4953C40.8822 22.2253 40.8323 22.0365 40.7826 21.9298Z" fill="black"/>
</g>
<defs>
<filter id="filter0_d" x="-4" y="0.803955" width="49.0001" height="31.3924" filterUnits="userSpaceOnUse" color-interpolation-filters="sRGB">
<feFlood flood-opacity="0" result="BackgroundImageFix"/>
<feColorMatrix in="SourceAlpha" type="matrix" values="0 0 0 0 0 0 0 0 0 0 0 0 0 0 0 0 0 0 127 0"/>
<feOffset dy="4"/>
<feGaussianBlur stdDeviation="2"/>
<feColorMatrix type="matrix" values="0 0 0 0 0 0 0 0 0 0 0 0 0 0 0 0 0 0 0.25 0"/>
<feBlend mode="normal" in2="BackgroundImageFix" result="effect1_dropShadow"/>
<feBlend mode="normal" in="SourceGraphic" in2="effect1_dropShadow" result="shape"/>
</filter>
</defs>
</svg>
