<svg width="65" height="35" viewBox="0 0 65 35" fill="none" xmlns="http://www.w3.org/2000/svg">
<path d="M10.5705 0H7.10768C3.7056 0 0.820074 2.39872 0.820074 7.0555C0.820074 9.84922 2.21749 11.9093 4.70791 12.9253L0.0608398 20.7144C-0.09109 20.9686 0.0608398 21.1656 0.303461 21.1656H2.46011C2.64246 21.1656 2.76401 21.1093 2.82481 20.9686L7.0469 13.3202H8.56588V20.9686C8.56588 21.053 8.65702 21.1656 8.77808 21.1656H10.6617C10.844 21.1656 10.9048 21.0812 10.9048 20.9404V0.282338C10.9048 0.0844092 10.7833 0 10.5705 0ZM8.56588 11.5143H7.29002C5.2853 11.5143 3.34142 10.1597 3.34142 6.77315C3.34142 3.24488 5.16374 1.80581 7.01648 1.80581H8.56588V11.5143Z" fill="#FF0303"/>
<path d="M21.9885 7.01636H20.1054C19.9529 7.01636 19.8622 7.12895 19.8622 7.21336V12.6037H16.3685V7.21336C16.3685 7.07265 16.3082 7.01636 16.1563 7.01636H14.2726C14.1212 7.01636 14.03 7.10082 14.03 7.21336V20.9295C14.03 21.0702 14.0908 21.1547 14.2422 21.1547H16.1563C16.2778 21.1547 16.3685 21.0702 16.3685 20.9295V14.3824H19.8622V20.9295C19.8622 21.0702 19.9529 21.1547 20.1054 21.1547H21.9885C22.1405 21.1547 22.2007 21.0421 22.2007 20.9295V7.21336C22.2007 7.10082 22.11 7.01636 21.9885 7.01636Z" fill="black"/>
<path d="M64.9892 20.2522L64.7457 19.2925C64.7161 19.2081 64.6855 19.1799 64.5942 19.1799C64.4426 19.1799 63.6225 19.4895 62.438 19.4895C60.1292 19.4895 59.0054 17.4304 59.0054 14.1563C59.0054 11.2772 59.947 8.42728 61.526 8.42728C61.9516 8.42728 62.4681 8.53992 63.2882 9.24627C63.3795 9.33064 63.4403 9.35886 63.5306 9.35886C63.6225 9.35886 63.7138 9.30159 63.8047 9.16092L64.6248 7.91975C64.6855 7.83444 64.7161 7.7491 64.7161 7.66463C64.7161 7.55209 64.5942 7.46762 64.412 7.38321C63.1667 6.79032 62.316 6.67773 61.5867 6.67773C58.7319 6.67773 56.5144 9.83822 56.5144 14.7764C56.5144 19.0383 58.6405 21.4933 61.6781 21.4933C62.9544 21.4933 64.3211 20.9295 64.8677 20.5618C64.9892 20.4773 65.0193 20.3648 64.9892 20.2522Z" fill="black"/>
<path d="M51.787 13.3937L55.4323 7.21336C55.4931 7.12895 55.4624 7.01636 55.341 7.01636H53.5492C53.0322 7.01636 52.85 7.18524 52.6683 7.55206L49.9337 12.8298C49.7822 13.1403 49.6303 13.3373 49.4783 13.4227V7.21336C49.4783 7.10082 49.4175 7.01636 49.296 7.01636H47.3217C47.231 7.01636 47.1398 7.10082 47.1398 7.21336V20.9577C47.1398 21.0421 47.2006 21.1547 47.3217 21.1547H49.296C49.4175 21.1547 49.4783 21.0702 49.4783 20.9577V13.8739C49.5695 13.9303 49.6303 14.0147 49.6915 14.1282L53.1542 20.7315C53.3364 21.0702 53.6099 21.1547 54.0049 21.1547H55.9483C56.0703 21.1547 56.1004 21.0421 56.0401 20.9577L51.787 13.3937Z" fill="black"/>
<path d="M34.3818 19.3769H34.0171C33.5613 19.3769 33.4402 19.2081 33.4402 18.8694V7.21336C33.4402 7.07265 33.3795 7.01636 33.2579 7.01636H27.1826C27.0311 7.01636 26.9395 7.10082 26.9395 7.21336V8.22936C26.9395 11.6441 26.7272 16.0466 24.7833 19.3769H24.1148C23.9324 19.3769 23.8716 19.4623 23.8716 19.603C23.8716 19.603 23.8716 22.9895 23.8716 23.7232C23.8716 23.8648 23.9932 23.9202 24.0844 23.9202H25.5426C25.8763 23.9202 25.9979 23.695 25.9979 23.4971V21.1547H32.4987V23.7232C32.4987 23.8358 32.5894 23.9202 32.7109 23.9202H34.2603C34.4421 23.9202 34.6244 23.7795 34.6244 23.4971V19.603C34.6244 19.4623 34.5333 19.3769 34.3818 19.3769ZM31.1008 19.3769H26.6968C28.2462 16.9219 28.853 14.1563 29.0662 10.7697C29.1265 10.0361 29.1569 9.27348 29.1569 8.79403H31.1008V19.3769Z" fill="black"/>
<path d="M40.5782 6.67773C37.2982 6.67773 35.84 10.5156 35.84 14.692C35.84 18.9538 37.9054 21.4933 40.9429 21.4933C42.431 21.4933 43.7377 20.9577 44.4058 20.5618C44.5273 20.5055 44.5572 20.4211 44.5273 20.3085L44.2842 19.3488C44.2538 19.2362 44.1931 19.1799 44.0411 19.1799C43.92 19.1799 43.0388 19.4895 41.7933 19.4895C39.4543 19.4895 38.3608 17.5992 38.3608 15.116C38.3608 14.7764 38.3608 14.4478 38.3608 14.4478C38.3608 14.4478 39.5455 14.5794 40.2439 14.5794H44.6793V13.3937C44.6793 9.02021 43.0078 6.67773 40.5782 6.67773ZM40.2439 12.8017C39.5455 12.8017 38.452 12.9143 38.452 12.9143C38.452 12.9143 38.452 12.4912 38.5127 12.0391C38.7857 9.64028 39.4239 8.42728 40.4871 8.42728C41.4595 8.42728 42.0668 9.66845 42.2187 11.842C42.2486 12.2933 42.2486 12.8017 42.2486 12.8017H40.2439Z" fill="black"/>
</svg>
